<svg xmlns="http://www.w3.org/2000/svg" viewBox="0 0 25 25"><defs><style>.cls-1{fill:#231f20;}</style></defs><g id="moon"><path class="cls-1" d="M22.89,18.24a.49.49,0,0,0-.55-.17,9.4,9.4,0,0,1-11.46-4.78A9.53,9.53,0,0,1,13.7,1.89a.49.49,0,0,0,.17-.55A.5.5,0,0,0,13.39,1,11.38,11.38,0,0,0,5,4.76,11.52,11.52,0,0,0,13.39,24a11.37,11.37,0,0,0,9.53-5.18A.48.48,0,0,0,22.89,18.24ZM13.39,23A10.52,10.52,0,0,1,5.71,5.43,10.39,10.39,0,0,1,12,2.1a10.52,10.52,0,0,0-2,11.61,10.24,10.24,0,0,0,11.27,5.68A10.35,10.35,0,0,1,13.39,23Z"/></g></svg>