<?xml version="1.0" encoding="utf-8"?>
<!-- Generator: Adobe Illustrator 24.0.0, SVG Export Plug-In . SVG Version: 6.00 Build 0)  -->
<svg version="1.1" id="Layer_2" xmlns="http://www.w3.org/2000/svg" xmlns:xlink="http://www.w3.org/1999/xlink" x="0px" y="0px"
	 viewBox="0 0 512 512" enable-background="new 0 0 512 512" xml:space="preserve">
<g>
	<g>
		<g>
			<circle fill="#6E83B7" cx="256" cy="256" r="246"/>
		</g>
		<g>
			<circle fill="#466089" cx="256" cy="256" r="200"/>
		</g>
	</g>
	<g>
		<g>
			<path fill="#EDEFF1" d="M276.02,351h-40v-89.36c0-23.401,19.097-42.439,42.571-42.439c20.087,0,36.429-16.194,36.429-36.101
				c0-19.905-16.342-36.1-36.429-36.1h-45.143c-20.087,0-36.429,16.194-36.429,36.1h-40c0-41.962,34.286-76.1,76.429-76.1h45.143
				c42.143,0,76.429,34.138,76.429,76.1S320.734,259.2,278.591,259.2c-1.418,0-2.571,1.095-2.571,2.439V351z"/>
		</g>
		<g>
			<circle fill="#EDEFF1" cx="256" cy="395" r="26"/>
		</g>
	</g>
</g>
</svg>
