<svg xmlns="http://www.w3.org/2000/svg" width="512" height="512" xml:space="preserve"><path fill="#F6BB42" d="M256 85.341c-5.891 0-10.656-4.781-10.656-10.671V10.672C245.344 4.781 250.11.008 256 .008c5.906 0 10.672 4.773 10.672 10.664V74.67c0 5.89-4.766 10.671-10.672 10.671zM256 511.992s.016 0 0 0c-5.875 0-10.656-4.781-10.656-10.656v-63.997c0-5.906 4.781-10.688 10.672-10.688 5.891 0 10.656 4.781 10.656 10.688v63.997c0 5.875-4.766 10.656-10.672 10.656z"/><path fill="#FFCE54" d="M135.332 135.324c-4.172 4.164-10.922 4.164-15.078 0L74.99 90.068c-4.156-4.164-4.156-10.914 0-15.078a10.666 10.666 0 0 1 15.094 0l45.248 45.248c4.172 4.164 4.172 10.922 0 15.086zM437.026 437.011a10.666 10.666 0 0 1-15.094 0l-45.249-45.25c-4.172-4.172-4.172-10.921 0-15.077a10.666 10.666 0 0 1 15.094 0l45.249 45.249c4.156 4.156 4.156 10.906 0 15.078z"/><path fill="#F6BB42" d="M85.35 256c0 5.891-4.781 10.664-10.672 10.664H10.68C4.789 266.664.024 261.891.008 256c0-5.891 4.781-10.664 10.672-10.664h63.998c5.89 0 10.672 4.773 10.672 10.664zM511.992 256c0 5.891-4.766 10.664-10.656 10.664h-63.997c-5.891 0-10.672-4.773-10.672-10.664s4.781-10.664 10.672-10.664h63.997c5.891 0 10.656 4.773 10.656 10.664z"/><g><path fill="#FFCE54" d="M135.332 376.684c4.172 4.156 4.172 10.905 0 15.077l-45.248 45.25a10.666 10.666 0 0 1-15.094 0c-4.156-4.172-4.156-10.922 0-15.078l45.264-45.249c4.156-4.172 10.906-4.172 15.078 0zM437.026 74.982c0 .008 0 0 0 0 4.155 4.171 4.155 10.921 0 15.085l-45.265 45.256c-4.156 4.164-10.906 4.164-15.078 0-4.172-4.164-4.172-10.922 0-15.086l45.249-45.256c4.172-4.163 10.922-4.163 15.094.001z"/></g><path fill="#FFCE54" d="M256 394.651c-76.45 0-138.651-62.186-138.651-138.651 0-76.458 62.201-138.66 138.651-138.66 76.467 0 138.668 62.202 138.668 138.66 0 76.466-62.201 138.651-138.668 138.651z"/><path fill="#F6BB42" d="M256 106.669c-82.466 0-149.323 66.857-149.323 149.331 0 82.466 66.857 149.339 149.323 149.339 82.482 0 149.34-66.873 149.34-149.339 0-82.474-66.858-149.331-149.34-149.331zm90.513 239.828c-24.171 24.187-56.311 37.498-90.513 37.498-34.187 0-66.326-13.312-90.497-37.498-24.171-24.155-37.499-56.311-37.499-90.497s13.328-66.334 37.499-90.505c24.171-24.178 56.311-37.491 90.497-37.491 34.202 0 66.342 13.313 90.513 37.491 24.171 24.171 37.483 56.319 37.483 90.505 0 34.187-13.312 66.342-37.483 90.497z"/></svg>