<svg xmlns="http://www.w3.org/2000/svg" viewBox="0 0 1440 320">
  <path
    fill="#f3f4f5"
    fill-opacity="1"
    d="M0,96L26.7,90.7C53.3,85,107,75,160,101.3C213.3,128,267,192,320,229.3C373.3,267,427,277,480,266.7C533.3,256,587,224,640,202.7C693.3,181,747,171,800,176C853.3,181,907,203,960,202.7C1013.3,203,1067,181,1120,149.3C1173.3,117,1227,75,1280,53.3C1333.3,32,1387,32,1413,32L1440,32L1440,320L1413.3,320C1386.7,320,1333,320,1280,320C1226.7,320,1173,320,1120,320C1066.7,320,1013,320,960,320C906.7,320,853,320,800,320C746.7,320,693,320,640,320C586.7,320,533,320,480,320C426.7,320,373,320,320,320C266.7,320,213,320,160,320C106.7,320,53,320,27,320L0,320Z"
  ></path>
</svg>
